<svg width="22" height="22" viewBox="0 0 22 22" fill="none" xmlns="http://www.w3.org/2000/svg">
<path d="M21.1369 17.9538C20.585 16.7188 19.7842 15.5971 18.7789 14.651C17.7768 13.7022 16.5896 12.9457 15.283 12.4234C15.2712 12.4178 15.2595 12.4151 15.2478 12.4095C17.0704 11.1658 18.2553 9.13995 18.2553 6.85427C18.2553 3.06784 15.008 0 11 0C6.99205 0 3.74473 3.06784 3.74473 6.85427C3.74473 9.13995 4.92956 11.1658 6.75216 12.4123C6.74045 12.4178 6.72875 12.4206 6.71705 12.4261C5.40642 12.9485 4.23036 13.6975 3.22106 14.6538C2.21676 15.6006 1.41603 16.7221 0.863099 17.9565C0.319897 19.165 0.026935 20.4607 7.31554e-05 21.7734C-0.000707679 21.8029 0.00476896 21.8322 0.0161805 21.8597C0.0275921 21.8871 0.0447076 21.9122 0.0665186 21.9333C0.0883295 21.9544 0.114395 21.9712 0.143178 21.9827C0.171961 21.9941 0.202881 22 0.234114 22H1.98942C2.11814 22 2.22054 21.9033 2.22346 21.7844C2.28197 19.6508 3.18888 17.6525 4.79206 16.1379C6.45083 14.5709 8.65374 13.7085 11 13.7085C13.3463 13.7085 15.5492 14.5709 17.2079 16.1379C18.8111 17.6525 19.718 19.6508 19.7765 21.7844C19.7795 21.906 19.8819 22 20.0106 22H21.7659C21.7971 22 21.828 21.9941 21.8568 21.9827C21.8856 21.9712 21.9117 21.9544 21.9335 21.9333C21.9553 21.9122 21.9724 21.8871 21.9838 21.8597C21.9952 21.8322 22.0007 21.8029 21.9999 21.7734C21.9707 20.4523 21.681 19.1671 21.1369 17.9538ZM11 11.608C9.65719 11.608 8.39337 11.1133 7.44258 10.2151C6.49179 9.31683 5.96812 8.12286 5.96812 6.85427C5.96812 5.58568 6.49179 4.39171 7.44258 3.49347C8.39337 2.59523 9.65719 2.1005 11 2.1005C12.3428 2.1005 13.6066 2.59523 14.5574 3.49347C15.5082 4.39171 16.0319 5.58568 16.0319 6.85427C16.0319 8.12286 15.5082 9.31683 14.5574 10.2151C13.6066 11.1133 12.3428 11.608 11 11.608Z" fill="white"/>
</svg>
